<mxfile modified="None" type="device">
  <diagram name="one.drawio" id="b4c815603270">
    <mxGraphModel dx="1600" dy="850" grid="1" gridSize="10" guides="1" tooltips="1" connect="1"
      arrows="1" fold="1" page="1" pageScale="1" pageWidth="1100" pageHeight="850" math="0"
      shadow="0">
      <root>
        <mxCell id="0" />
        <mxCell id="1" parent="0" />
        <mxCell id="b4c815603270-3" style="edgeStyle=orthogonalEdgeStyle;rounded=0;orthogonalLoop=1;jettySize=auto;html=1;exitX=0.5;exitY=1;exitDx=0;exitDy=0;entryX=0.5;entryY=0;entryDx=0;entryDy=0;startArrow=classic;endArrow=none;curved=0;dashed=0" edge="1" parent="1" source="b4c815603270-1" target="b4c815603270-2">
          <mxGeometry relative="1" as="geometry" />
        </mxCell>
        <mxCell id="b4c815603270-4" value="pmd:smth" style="edgeLabel;html=1;align=center;verticalAlign=middle;resizable=0;points=[];" vertex="1" connectable="0" parent="b4c815603270-3">
          <mxGeometry x="0" y="0" relative="1" as="geometry">
            <mxPoint as="offset" />
          </mxGeometry>
        </mxCell>        <mxCell id="b4c815603270-1" value="term_1" style="rounded=0;whiteSpace=wrap;html=1;fillColor=#aaaaaa;strokeColor=#000000;fontStyle=1;" parent="1" vertex="1">
          <mxGeometry x="205.0" y="0" width="200" height="80" as="geometry" />
        </mxCell>
        <mxCell id="b4c815603270-2" value="term_2" style="rounded=0;whiteSpace=wrap;html=1;fillColor=#aaaaaa;strokeColor=#000000;fontStyle=1;" parent="1" vertex="1">
          <mxGeometry x="205.0" y="180" width="200" height="80" as="geometry" />
        </mxCell>

      </root>
    </mxGraphModel>
  </diagram>
</mxfile>